<svg xmlns="http://www.w3.org/2000/svg" width="3957" height="3182.566" viewBox="0 0 3957 3182.566"><g transform="translate(-803 -1499)"><g transform="translate(2215.645 1499.359)"><rect width="2544" height="2628" rx="8" transform="translate(0.355 -0.36)" fill="#f2f2f2"/><rect width="531" height="615" rx="8" transform="translate(1891.355 326.64)" fill="#fff"/><g transform="translate(1966.974 440.093)"><ellipse cx="121.5" cy="122" rx="121.5" ry="122" transform="translate(68.381 -0.453)" fill="#dde3e9"/><rect width="379" height="46" rx="3.5" transform="translate(0.381 273.547)" fill="#dde3e9"/><rect width="257" height="46" rx="3.5" transform="translate(61.381 349.547)" fill="#dde3e9"/></g><path d="M8,0H2536a8,8,0,0,1,8,8V206a0,0,0,0,1,0,0H0a0,0,0,0,1,0,0V8A8,8,0,0,1,8,0Z" transform="translate(0.355 -0.36)" fill="#c5cfd6"/><g transform="translate(68.211 76.082)"><circle cx="30.5" cy="30.5" r="30.5" transform="translate(0.144 -0.441)" fill="#f2f2f2"/><circle cx="30.5" cy="30.5" r="30.5" transform="translate(91.144 -0.441)" fill="#f2f2f2"/><circle cx="30.5" cy="30.5" r="30.5" transform="translate(182.144 -0.441)" fill="#f2f2f2"/></g><g transform="translate(1890.892 1002.179)"><rect width="531" height="1473" rx="8" transform="translate(0.463 0.461)" fill="#fff"/><g transform="translate(137.078 137.078)"><rect width="257" height="197" rx="4" transform="translate(0.385 0.383)" fill="#dde3e9"/><rect width="257" height="191" rx="4" transform="translate(0.385 257.383)" fill="#afb9c5"/><rect width="257" height="190" rx="4" transform="translate(0.385 508.383)" fill="#dde3e9"/><rect width="257" height="189" rx="4" transform="translate(0.385 1010.383)" fill="#dde3e9"/><rect width="257" height="190" rx="4" transform="translate(0.385 759.383)" fill="#c5cfd6"/></g></g><g transform="translate(190.204 333.841)"><g transform="translate(0 0)"><rect width="1709" height="358" rx="4" transform="translate(0.151 -0.201)" fill="#fff"/><g transform="translate(68.593 107.331)"><rect width="1268.195" height="53.538" rx="3" fill="#dde3e9"/><rect width="851.254" height="53.538" rx="3" transform="translate(0 89.229)" fill="#dde3e9"/></g><g transform="translate(1473.132 125.557)"><circle cx="53.158" cy="53.158" r="53.158" fill="#dde3e9"/><circle cx="22.782" cy="22.782" r="22.782" transform="translate(30.376 30.376)" fill="#f2f2f2"/></g></g><g transform="translate(0 417.793)"><rect width="1709" height="296" rx="4" transform="translate(0.151 0.006)" fill="#fff"/><g transform="translate(68.593 88.981)"><rect width="1268.195" height="44.425" rx="3" fill="#dde3e9"/><rect width="851.254" height="44.425" rx="3" transform="translate(0 74.041)" fill="#dde3e9"/></g><g transform="translate(1473.132 95.056)"><circle cx="53.158" cy="53.158" r="53.158" fill="#dde3e9"/><circle cx="22.782" cy="22.782" r="22.782" transform="translate(30.376 30.376)" fill="#f2f2f2"/></g></g><g transform="translate(0 774.59)"><rect width="1709" height="296" rx="4" transform="translate(0.151 0.209)" fill="#fff"/><g transform="translate(68.593 89.101)"><rect width="1268.195" height="44.425" rx="3" fill="#dde3e9"/><rect width="851.254" height="44.425" rx="3" transform="translate(0 74.041)" fill="#dde3e9"/></g><g transform="translate(1473.132 95.177)"><circle cx="53.158" cy="53.158" r="53.158" fill="#dde3e9"/><circle cx="22.782" cy="22.782" r="22.782" transform="translate(30.376 30.376)" fill="#afb9c5"/></g></g><g transform="translate(0 1845.637)"><rect width="1709" height="296" rx="4" transform="translate(0.151 0.163)" fill="#fff"/><g transform="translate(68.593 88.807)"><rect width="1268.195" height="44.425" rx="3" fill="#dde3e9"/><rect width="851.254" height="44.425" rx="3" transform="translate(0 74.041)" fill="#dde3e9"/></g><g transform="translate(1473.132 94.882)"><circle cx="53.158" cy="53.158" r="53.158" fill="#dde3e9"/><circle cx="22.782" cy="22.782" r="22.782" transform="translate(30.376 30.376)" fill="#f2f2f2"/></g></g><g transform="translate(0 1488.84)"><rect width="1709" height="296" rx="4" transform="translate(0.151 -0.041)" fill="#fff"/><g transform="translate(68.593 88.686)"><rect width="1268.195" height="44.425" rx="3" fill="#dde3e9"/><rect width="851.254" height="44.425" rx="3" transform="translate(0 74.041)" fill="#dde3e9"/></g><g transform="translate(1473.132 94.762)"><circle cx="53.158" cy="53.158" r="53.158" fill="#dde3e9"/><circle cx="22.782" cy="22.782" r="22.782" transform="translate(30.376 30.376)" fill="#f2f2f2"/></g></g><g transform="translate(0 1132.043)"><rect width="1709" height="296" rx="4" transform="translate(0.151 -0.244)" fill="#fff"/><g transform="translate(68.593 88.566)"><rect width="1268.195" height="44.425" rx="3" fill="#dde3e9"/><rect width="851.254" height="44.425" rx="3" transform="translate(0 74.041)" fill="#dde3e9"/></g><g transform="translate(1473.132 94.641)"><circle cx="53.158" cy="53.158" r="53.158" fill="#dde3e9"/><circle cx="22.782" cy="22.782" r="22.782" transform="translate(30.376 30.376)" fill="#f2f2f2"/></g></g></g></g><rect width="2544" height="2628" transform="translate(2216 1499)" fill="rgba(0,172,184,0.15)"/><g transform="translate(803 1999)"><g transform="translate(328)"><g transform="translate(407.955 234.148)"><path d="M0,552,62.36,260.8C27.585,219.9,4.043,169.775,7.975,113.616,19.312-48.206,244.156-12.606,287.889,69.067s38.543,288.847-17.981,303.444c-22.544,5.822-70.566-8.438-119.443-37.953L181.146,552Z" transform="translate(0.045 -0.148)" fill="#b28b67"/></g><path d="M330.111,184.243c-24.793-7.56-60.783-10.124-75.923-8.39a130.59,130.59,0,0,0,9.244-66.01C260.724,88.092,251,69.572,242.016,50.165c-4.143-8.945-8.839-17.842-15.839-24.684a54.094,54.094,0,0,0-25.625-13.767,68.567,68.567,0,0,0-29.519-.021c-4.292.9-8.143,2.864-12.352,3.955-4.311,1.118-6.4-1.58-9.53-4.292C141.611,4.823,130.557,1.6,121.018.444A72.544,72.544,0,0,0,89,4.282c-9.935,3.425-19.479,8.987-26.662,17.089a44.711,44.711,0,0,0-7.988,12.244c-.774,1.86-.9,2.962-2.758,3.643-1.717.631-3.724.649-5.5,1.249-17.13,5.8-31.776,19.038-39.75,36.032C1.7,84.455-.506,101.91.1,121.475s18.269,70.616,34.792,89.236C49.638,227.332,71.317,238.3,92.238,243.1c-13.887,15.873-23.13,35.708-29.966,55.88a273.469,273.469,0,0,0-13.717,67.879c-1.612,22.041-1.761,45.35,3.406,66.92C56.795,453.953,67.132,470.5,84.388,481a154.882,154.882,0,0,0,24.963,11.724c8.43,3.254,16.886,6.417,25.716,8.243,16.713,3.454,35.969,2.861,48.843-10.442a91.7,91.7,0,0,0,13.128-16.68c1.217-2.107,1.951-3.485.472-5.544-1.772-2.466-4.637-4.356-6.913-6.286a65.151,65.151,0,0,1-23.035-43.141c-2.055-17.708,2.7-40.566,19.919-48.294,21.252-9.54,44.657,1.41,63.546,11.618,8.028-28.334,24.511-53.846,50.354-66.843,28.591-14.379,61.4-16.061,90.78-28.4,7.656-3.215,15.454-6.864,21.091-13.414,2.355-2.738,5.119-6.289,6.06-9.909,1.236-4.756-1.832-8.744-4.2-12.451C402.548,231.522,354.9,191.8,330.111,184.243Z" transform="translate(294.831 30.241)" fill="#191847"/></g><g transform="translate(0 1407.964)"><path d="M431.915,1044.5c-7.566-95.354-21.63-425.916-7.559-579.7,4.231-46.253,8.7-90.926,13.2-132.641C302.136,574.605,87.065,920.4,87.065,920.4L0,880.622s102.558-337.9,168.19-477.1c74.92-158.892,145.165-294.956,174.728-342.885C381.97-2.669,445.323,5.736,489.952,37.077c54.281-73.62,189.958-24.885,189.876,36.062-.218,160.015-146.24,919.677-153.86,967.633-4.151,26.1-30.231,42.645-53.908,42.646C452.228,1083.419,434.083,1071.815,431.915,1044.5Z" transform="translate(1164.804 97.837)" fill="#b28b67"/><path d="M0,845.541,38.684,78.1c27.884-132.7,263.9-71.113,263.8,0-.219,161.452-97.2,719.178-97.263,767.28Z" transform="translate(1460.22 58.812) rotate(20)" fill="#1f28cf"/><path d="M1277.652,226.247c0,200.657-87.952,672.327-88.012,716.513l-213.059-7.186s55.864-615.132,47.117-619.3c-13.121-6.252-537.872,72.629-695.253,78.585C101.5,403.448,7.618,264.217,0,0H439.6s563.846,67.306,741.166,93.625C1256.68,104.893,1277.652,170.971,1277.652,226.247Z" transform="translate(574.539 0)" fill="#2b44ff"/><g transform="translate(1140.443 892.506) rotate(25)"><path d="M40.346,40.923c-9.77-3.165-20.318,2.143-23.134,11.643L0,110.628c0,23.356,8.128,68.165,8.128,68.165H516.807s19.828-62.759-22.892-67.763-70.977-9.037-70.977-9.037L186.51,1.083a9.171,9.171,0,0,0-12.01,4.6L159.3,40.973S119.754,58.639,95.029,58.639Z" transform="translate(0 -0.332)" fill="#e4e4e4"/></g><g transform="translate(1565 837.036)"><path d="M33.82,35.872A15.12,15.12,0,0,0,14.428,46.067L0,96.9c0,20.45,6.813,59.683,6.813,59.683h426.4s16.621-54.95-19.189-59.331-59.5-7.912-59.5-7.912L156.342.989a7.56,7.56,0,0,0-10.068,4.024l-12.739,30.9S100.384,51.384,79.658,51.384Z" transform="translate(7.56 145.822)" fill="#e4e4e4"/></g><rect width="401" height="52" rx="4" transform="translate(1580 1140.036)" fill="#2f3676"/><path d="M10,0H950a10,10,0,0,1,10,10V446a0,0,0,0,1,0,0H4a4,4,0,0,1-4-4V10A10,10,0,0,1,10,0Z" transform="translate(476 43.036)" fill="#2f3676"/><path d="M0,0H16.584a75.6,75.6,0,0,1,74.6,63.354l165.856,1010.2H176.258" transform="translate(1360.787 43.467)" fill="#2f3676"/><ellipse cx="136" cy="136.5" rx="136" ry="136.5" transform="translate(1444 996.036)" fill="#191847"/><g transform="translate(0 103.702)"><path d="M574.5,1149a571.808,571.808,0,0,1-321.206-98.116A576.177,576.177,0,0,1,45.147,798.12a573.742,573.742,0,0,1,52.968-544.83A576.177,576.177,0,0,1,350.877,45.147,573.749,573.749,0,0,1,895.708,98.115a576.176,576.176,0,0,1,208.145,252.762,573.746,573.746,0,0,1-52.969,544.831A576.177,576.177,0,0,1,798.12,1103.853,570.911,570.911,0,0,1,574.5,1149Zm0-1043.168a466.475,466.475,0,0,0-262.035,80.04,470.03,470.03,0,0,0-169.8,206.2,468.062,468.062,0,0,0,43.21,444.467,470.026,470.026,0,0,0,206.2,169.8,468.06,468.06,0,0,0,444.467-43.211,470.027,470.027,0,0,0,169.8-206.2,468.053,468.053,0,0,0-43.211-444.466,470.031,470.031,0,0,0-206.2-169.8A465.752,465.752,0,0,0,574.5,105.832Z" transform="translate(0 0.334)" fill="#191847"/><rect width="61" height="997" transform="translate(544 76.334)" fill="#191847"/><path d="M15.12,0H45.361a15.121,15.121,0,0,1,15.12,15.12l.01,967.7a15.12,15.12,0,0,1-15.12,15.12H15.131A15.121,15.121,0,0,1,.01,982.82L0,15.12A15.12,15.12,0,0,1,15.12,0Z" transform="translate(905.977 200.613) rotate(45)" fill="#191847"/><rect width="61" height="999" rx="2" transform="translate(1074 544.334) rotate(90)" fill="#191847"/><path d="M15.131,0H45.371a15.12,15.12,0,0,1,15.12,15.12l-.01,967.7a15.121,15.121,0,0,1-15.12,15.12H15.12A15.12,15.12,0,0,1,0,982.82l.01-967.7A15.121,15.121,0,0,1,15.131,0Z" transform="translate(948.751 906.263) rotate(135)" fill="#191847"/></g></g><g transform="translate(478.676 459.344)"><path d="M238.8,914.194,0,815.165,53.31,683.388,294.46,860.474Q392.571,886.95,458.4,926.353c10.363,9.444,22.9,28.571-20.1,25.264s-88.358-4.851-94.284,9.819,20.079,32.2,8.09,51.984a5.7,5.7,0,0,1-5.232,2.819Q325.674,1016.239,238.8,914.194ZM78.628,178.155l286.56-86.026Q445.367,29.708,516.456.851c13.778-2.592,36.6-1.089,8.083,31.259s-57.045,67.647-48.908,81.208,37.8,3.341,46.39,24.822Q530.6,159.624,374.6,168.915L151.792,300.039Z" transform="translate(764.52)" fill="#b28b67"/><path d="M101.991,0C292.218,202.54,524.23,334.706,840.658,451.938L770.39,592.451C443.91,561.666,269.368,537.08,132.535,334.228,98.193,283.316,36.787,108.139,0,17.169Z" transform="matrix(0.966, 0.259, -0.259, 0.966, 344.741, 180.079)" fill="#f8e71c"/><path d="M0,861.867H582.125S384.334,258.621,380.046,33.806c-.146-7.641-14.257-21.105-20.5-19.342C291.063,33.806,212.981,0,212.981,0,74.977,221.956,27.253,495.23,0,861.867Z" transform="translate(76.134 160.459)" fill="#2b44ff"/><path d="M10.746,1115.938C-38.55,784.627,91.013,325.268,211.125,93.571c4.586-8.852,14.357-25.529,37.354-25.529h90.195l.118.356c30.386.246,64.213,1.462,101.113,2.672C605.632,76.527,833.235,81.977,1088.6,0l30.829,154.027C883.45,305.8,644.512,423.369,435.136,406.671c90.911,389.993,86.719,709.266-114,709.266Z" transform="translate(0 92.417)" fill="#f8e71c"/></g></g><g transform="matrix(0.891, -0.454, 0.454, 0.891, 2561.058, 2549.502)"><rect width="1709.214" height="295.8" rx="4" transform="translate(0 0)" fill="#fff"/><g transform="translate(68.593 88.807)"><rect width="1268.195" height="44.425" rx="3" fill="#dde3e9"/><rect width="851.254" height="44.425" rx="3" transform="translate(0 74.041)" fill="#dde3e9"/></g><g transform="translate(1473.132 94.882)"><circle cx="53.158" cy="53.158" r="53.158" fill="#dde3e9"/><circle cx="22.782" cy="22.782" r="22.782" transform="translate(30.376 30.376)" fill="#f2f2f2"/></g></g><g transform="translate(2627.538 2921.177) rotate(-17)"><rect width="1709.214" height="295.8" rx="4" transform="translate(0 0)" fill="#fff"/><g transform="translate(68.593 88.807)"><rect width="1268.195" height="44.425" rx="3" fill="#dde3e9"/><rect width="851.254" height="44.425" rx="3" transform="translate(0 74.041)" fill="#dde3e9"/></g><g transform="translate(1473.132 94.882)"><circle cx="53.158" cy="53.158" r="53.158" fill="#dde3e9"/><circle cx="22.782" cy="22.782" r="22.782" transform="translate(30.376 30.376)" fill="#f2f2f2"/></g></g></g></svg>